<svg width="148" height="123" viewBox="0 0 148 123" fill="none" xmlns="http://www.w3.org/2000/svg">
<path d="M37.7964 69.4836L57.8526 44.2712L37.9061 29.6604L44.6181 20.495L74.1389 42.097L46.6926 76.5546L37.7964 69.4836ZM23.9436 110.533H16.9623V118.103H23.9436V110.533ZM15.965 108.539H24.9409C25.2054 108.539 25.4591 108.644 25.6461 108.831C25.8332 109.018 25.9382 109.272 25.9382 109.536V119.15C25.9382 119.415 25.8332 119.668 25.6461 119.856C25.4591 120.043 25.2054 120.148 24.9409 120.148H15.965C15.7005 120.148 15.4468 120.043 15.2598 119.856C15.0728 119.668 14.9677 119.415 14.9677 119.15V109.536C14.9609 109.401 14.9817 109.266 15.0288 109.139C15.0759 109.012 15.1483 108.896 15.2416 108.798C15.3348 108.7 15.4471 108.623 15.5715 108.569C15.6958 108.516 15.8297 108.489 15.965 108.489V108.539ZM28.5911 120.188V109.516C28.5727 109.294 28.6292 109.072 28.7516 108.886C28.874 108.7 29.0553 108.56 29.2666 108.488C29.4778 108.417 29.7068 108.419 29.917 108.493C30.1272 108.567 30.3065 108.71 30.4262 108.898L35.4826 114.293L40.5989 108.818C40.7341 108.659 40.9155 108.547 41.1178 108.497C41.3201 108.446 41.5331 108.461 41.7268 108.538C41.9205 108.615 42.0852 108.751 42.1977 108.926C42.3102 109.102 42.365 109.308 42.3542 109.516V120.138H40.3596V112.099L36.2107 116.527C36.1176 116.624 36.0061 116.701 35.8827 116.753C35.7594 116.806 35.6267 116.833 35.4926 116.833C35.3586 116.833 35.2259 116.806 35.1025 116.753C34.9791 116.701 34.8676 116.624 34.7745 116.527L30.6755 112.149V120.197L28.5911 120.188ZM44.9472 120.188V109.506C44.9472 109.242 45.0523 108.988 45.2394 108.801C45.4264 108.614 45.6801 108.509 45.9446 108.509H54.9205C55.185 108.509 55.4387 108.614 55.6257 108.801C55.8127 108.988 55.9178 109.242 55.9178 109.506V120.138H53.9232V110.523H46.9419V120.138L44.9472 120.188ZM65.522 88.7618H58.9597V91.5244H63.2382V93.5191H58.9597V96.2817H65.522V98.2763H57.9424C57.6779 98.2763 57.4242 98.1712 57.2372 97.9842C57.0501 97.7972 56.9451 97.5435 56.9451 97.279V87.7645C56.9451 87.5 57.0501 87.2463 57.2372 87.0593C57.4242 86.8723 57.6779 86.7672 57.9424 86.7672H65.522V88.7618ZM67.1577 110.553H60.5953V113.316H64.8339V115.311H60.5953V118.073H67.1577V120.068H59.578C59.3135 120.068 59.0598 119.963 58.8728 119.776C58.6857 119.589 58.5807 119.335 58.5807 119.071V109.456C58.5807 109.192 58.6857 108.938 58.8728 108.751C59.0598 108.564 59.3135 108.459 59.578 108.459H67.1577V110.553ZM91.991 110.553H85.4386V113.316H89.7171V115.311H85.4386V118.073H92.001V120.068H84.4213C84.1568 120.068 83.9032 119.963 83.7161 119.776C83.5291 119.589 83.424 119.335 83.424 119.071V109.506C83.424 109.242 83.5291 108.988 83.7161 108.801C83.9032 108.614 84.1568 108.509 84.4213 108.509H92.001L91.991 110.553ZM70.1397 91.5045H77.1209V86.6974H79.1156V98.3561H77.1209V93.549H70.1397V98.3561H68.145V86.6974H70.1397V91.5045ZM96.6186 113.296H103.6V108.489H105.595V120.138H103.6V115.331H96.6186V120.138H94.624V108.489H96.6186V113.296ZM86.2365 98.3362V88.7618H81.7186V86.7672H92.759V88.7618H88.271V98.376L86.2365 98.3362ZM74.2686 120.128V110.513H69.7407V108.519H80.7911V110.513H76.2931V120.128H74.2686ZM97.4165 88.7618V92.6315H104.398V88.7618H97.4165ZM95.4218 98.376V86.6974H105.395C105.66 86.6974 105.913 86.8025 106.1 86.9895C106.287 87.1765 106.392 87.4302 106.392 87.6947V93.6088C106.392 93.8733 106.287 94.127 106.1 94.314C105.913 94.5011 105.66 94.6062 105.395 94.6062H97.4165V98.3062L95.4218 98.376ZM43.6408 86.6974V96.3116H50.622V86.6974H52.6167V96.3116H54.3321C54.5458 96.2966 54.7586 96.3508 54.9391 96.4662C55.1196 96.5816 55.2582 96.752 55.3343 96.9523C55.4103 97.1525 55.4199 97.372 55.3616 97.5781C55.3032 97.7843 55.18 97.9661 55.0102 98.0968L52.0183 101.189L50.632 99.7324L51.9983 98.3162H42.6235C42.359 98.3162 42.1053 98.2111 41.9183 98.0241C41.7312 97.8371 41.6262 97.5834 41.6262 97.3189V86.6974H43.6408ZM110.232 108.489V118.103H117.213V108.489H119.208V118.103H120.923C121.139 118.087 121.354 118.142 121.535 118.258C121.717 118.375 121.856 118.547 121.932 118.75C122.007 118.952 122.014 119.174 121.953 119.381C121.892 119.588 121.765 119.769 121.592 119.898L118.689 123L117.203 121.614L118.58 120.148H109.215C108.95 120.148 108.697 120.043 108.51 119.856C108.323 119.668 108.217 119.415 108.217 119.15V108.489H110.232ZM138.975 108.489V116.557L146.226 108.808C146.361 108.649 146.542 108.537 146.744 108.487C146.947 108.437 147.16 108.451 147.353 108.528C147.547 108.605 147.712 108.741 147.824 108.916C147.937 109.092 147.992 109.298 147.981 109.506V120.148H145.986V112.079L138.805 119.759C138.686 119.947 138.506 120.089 138.296 120.163C138.086 120.238 137.857 120.239 137.646 120.168C137.435 120.097 137.253 119.957 137.131 119.771C137.008 119.584 136.952 119.362 136.97 119.14V108.489H138.975ZM145.258 105.716L142.964 108.16C142.78 108.357 142.526 108.473 142.257 108.482C141.987 108.492 141.725 108.393 141.528 108.21C141.331 108.026 141.215 107.771 141.206 107.502C141.196 107.233 141.294 106.971 141.478 106.774L143.772 104.33L145.258 105.716ZM125.312 108.489V116.557L132.562 108.808C132.697 108.649 132.879 108.537 133.081 108.487C133.283 108.437 133.496 108.451 133.69 108.528C133.884 108.605 134.048 108.741 134.161 108.916C134.274 109.092 134.328 109.298 134.317 109.506V120.148H132.323V112.079L125.142 119.759C125.022 119.947 124.843 120.089 124.633 120.163C124.423 120.238 124.194 120.239 123.982 120.168C123.771 120.097 123.59 119.957 123.467 119.771C123.345 119.584 123.289 119.362 123.307 119.14V108.489H125.312ZM2.00246 108.489V113.296H8.98373V108.489H10.9784V114.313C10.9784 114.578 10.8733 114.831 10.6863 115.019C10.4992 115.206 10.2456 115.311 9.98106 115.311H8.45515L12.8035 120.118L11.2975 121.484L5.71251 115.321H2.00246V120.128H0.0078125V108.489H2.00246ZM84.0823 48.9487L110.073 67.2296L103.53 76.5247L74.4481 56.0696L84.0823 48.9487Z" fill="#1B1B1B"/>
<path d="M78.6177 11.2997C77.8035 10.2657 76.6563 9.54569 75.3711 9.26202C74.086 8.97836 72.7423 9.14857 71.5685 9.74372C70.3946 10.3389 69.4632 11.3222 68.9325 12.5265C68.4018 13.7309 68.3046 15.0818 68.6575 16.3497C69.0103 17.6176 69.7914 18.7241 70.868 19.4812C71.9445 20.2382 73.25 20.599 74.5626 20.5022C75.8751 20.4054 77.1135 19.857 78.0674 18.9502C79.0212 18.0434 79.6315 16.8343 79.7945 15.5283C79.8926 14.7827 79.8417 14.0249 79.6449 13.2991C79.448 12.5732 79.109 11.8936 78.6476 11.2997H78.6177ZM75.9748 0.119674C79.3648 0.54694 82.5018 2.13628 84.8514 4.61695C87.201 7.09762 88.618 10.3162 88.8608 13.7243C89.1036 17.1325 88.1574 20.5194 86.1832 23.3082C84.2091 26.0969 81.3291 28.115 78.034 29.0186C74.7388 29.9222 71.2323 29.6555 68.1118 28.2638C64.9912 26.8721 62.4497 24.4416 60.9201 21.3863C59.3905 18.331 58.9675 14.8399 59.7231 11.5077C60.4787 8.17551 62.3662 5.20833 65.0641 3.11165C66.5966 1.91992 68.3492 1.04222 70.2214 0.528815C72.0936 0.0154058 74.0488 -0.123629 75.9748 0.119674V0.119674ZM110.213 29.6604L46.6934 76.5347L74.1397 42.097L103.411 20.495L110.213 29.6604Z" fill="#18A763"/>
</svg>
