<svg width="144" height="110" viewBox="0 0 144 110" fill="none" xmlns="http://www.w3.org/2000/svg">
<g clip-path="url(#clip0_1084_2207)">
<path d="M10.5705 8.73998H10.0005V11.12H9.00055V8.73998H8.36055L7.00055 11.11H5.81055L7.59055 8.17998L5.93055 5.59998H7.09055L8.41055 7.89998H9.00055V5.59998H10.0005V7.89998H10.5705L11.8705 5.59998H13.0005L11.3405 8.16998L13.1005 11.11H11.9105L10.5705 8.73998Z" fill="white"/>
<path d="M17.1309 5.59998H18.1309V11.11H17.1309V7.18998L14.7109 11.11H13.7109V5.59998H14.7109V9.52998L17.1309 5.59998Z" fill="white"/>
<path d="M23.5705 5.59998V11.11H22.5705V6.37998H20.9305L20.8305 8.50998C20.8174 9.0348 20.7367 9.55574 20.5905 10.06C20.499 10.3767 20.3101 10.6566 20.0505 10.86C19.7536 11.0506 19.4023 11.1385 19.0505 11.11H18.8105V10.35H19.0005C19.1938 10.342 19.3766 10.2596 19.5105 10.12C19.6502 9.94243 19.743 9.73269 19.7805 9.50998C19.8569 9.11424 19.9004 8.71288 19.9105 8.30998L20.0005 5.59998H23.5705Z" fill="white"/>
<path d="M25.6492 7.70998H26.7792C27.1437 7.70154 27.5055 7.77323 27.8392 7.91998C28.1199 8.044 28.3569 8.24956 28.5192 8.50998C28.6763 8.77617 28.756 9.08095 28.7492 9.38998C28.7591 9.62219 28.7176 9.85372 28.6277 10.0681C28.5378 10.2824 28.4018 10.4743 28.2292 10.63C27.8289 10.9624 27.319 11.1336 26.7992 11.11H24.6992V5.59998H25.6992L25.6492 7.70998ZM25.6492 8.47998V10.34H26.7692C26.9054 10.3501 27.0421 10.3323 27.1711 10.2876C27.3001 10.2429 27.4186 10.1722 27.5192 10.08C27.6109 9.98882 27.6823 9.87936 27.7288 9.75875C27.7753 9.63814 27.7959 9.50908 27.7892 9.37998C27.7966 9.25766 27.7772 9.1352 27.7323 9.02118C27.6874 8.90717 27.6181 8.80436 27.5292 8.71998C27.3254 8.54875 27.0652 8.45962 26.7992 8.46998L25.6492 8.47998Z" fill="white"/>
<path d="M32.7708 8.64998H30.5108V10.34H33.1508V11.1H29.5508V5.59998H33.1208V6.36998H30.5108V7.89998H32.7708V8.64998Z" fill="white"/>
<path d="M9.66 14.9H10.66V20.4H9.66V16.48L7.25 20.4H6.25V14.9H7.25V18.82L9.66 14.9Z" fill="white"/>
<path d="M17.2199 15.67H14.6699V20.4H13.6699V14.9H17.1599L17.2199 15.67Z" fill="white"/>
<path d="M22.2306 17.8C22.2409 18.288 22.1454 18.7724 21.9506 19.22C21.7836 19.606 21.505 19.9334 21.1506 20.16C20.7887 20.3737 20.376 20.4865 19.9556 20.4865C19.5352 20.4865 19.1226 20.3737 18.7606 20.16C18.4052 19.9362 18.1235 19.6127 17.9506 19.23C17.7519 18.7904 17.6528 18.3123 17.6606 17.83V17.52C17.6525 17.0311 17.7515 16.5465 17.9506 16.1C18.1224 15.7138 18.4041 15.3869 18.7606 15.16C19.1176 14.9386 19.5306 14.8241 19.9506 14.83C20.3695 14.8222 20.7821 14.9331 21.1406 15.15C21.4927 15.3748 21.7709 15.6982 21.9406 16.08C22.138 16.5235 22.2369 17.0045 22.2306 17.49V17.8ZM21.2306 17.51C21.2597 17.0185 21.1375 16.5299 20.8806 16.11C20.7682 15.9491 20.6185 15.8177 20.4444 15.7269C20.2703 15.6362 20.0769 15.5888 19.8806 15.5888C19.6843 15.5888 19.4909 15.6362 19.3168 15.7269C19.1427 15.8177 18.9931 15.9491 18.8806 16.11C18.6212 16.5218 18.4954 17.0039 18.5206 17.49V17.81C18.5306 18.3122 18.6985 18.7986 19.0006 19.2C19.1103 19.3622 19.26 19.4934 19.4351 19.581C19.6103 19.6686 19.805 19.7095 20.0006 19.7C20.1945 19.7127 20.3884 19.6752 20.5636 19.5911C20.7387 19.507 20.8893 19.3792 21.0006 19.22C21.2543 18.7953 21.3728 18.3036 21.3406 17.81L21.2306 17.51Z" fill="white"/>
<path d="M24.1309 18.36V20.36H23.1309V14.9H25.2409C25.7737 14.8702 26.2983 15.0415 26.7109 15.38C26.8888 15.5389 27.0295 15.7351 27.1229 15.9546C27.2162 16.1742 27.2599 16.4116 27.2509 16.65C27.264 16.8865 27.223 17.1228 27.1312 17.3411C27.0394 17.5594 26.8991 17.754 26.7209 17.91C26.2944 18.2341 25.7655 18.3938 25.2309 18.36H24.1309ZM24.1309 17.59H25.2809C25.5617 17.61 25.8398 17.5244 26.0609 17.35C26.1533 17.2615 26.2254 17.154 26.272 17.0348C26.3187 16.9156 26.3387 16.7877 26.3309 16.66C26.3377 16.397 26.2407 16.1419 26.0609 15.95C25.961 15.856 25.8429 15.7835 25.7139 15.737C25.5849 15.6906 25.4477 15.6712 25.3109 15.68H24.1309V17.59Z" fill="white"/>
<path d="M32.5607 17.8C32.571 18.288 32.4755 18.7724 32.2807 19.22C32.1137 19.606 31.8351 19.9334 31.4807 20.16C31.1187 20.3737 30.7061 20.4865 30.2857 20.4865C29.8653 20.4865 29.4527 20.3737 29.0907 20.16C28.7353 19.9362 28.4536 19.6127 28.2807 19.23C28.0823 18.7903 27.9832 18.3123 27.9907 17.83V17.52C27.9826 17.0311 28.0816 16.5465 28.2807 16.1C28.4524 15.7138 28.7342 15.3869 29.0907 15.16C29.4477 14.9386 29.8607 14.8241 30.2807 14.83C30.6996 14.8222 31.1122 14.9331 31.4707 15.15C31.8228 15.3748 32.101 15.6982 32.2707 16.08C32.4684 16.5234 32.5673 17.0045 32.5607 17.49V17.8ZM31.5607 17.51C31.5898 17.0185 31.4676 16.5299 31.2107 16.11C31.0982 15.9491 30.9486 15.8177 30.7745 15.7269C30.6004 15.6362 30.407 15.5888 30.2107 15.5888C30.0144 15.5888 29.821 15.6362 29.6469 15.7269C29.4728 15.8177 29.3232 15.9491 29.2107 16.11C29.0052 16.5353 28.932 17.0126 29.0007 17.48V17.8C28.9703 18.2916 29.0926 18.7805 29.3507 19.2C29.4604 19.3622 29.61 19.4934 29.7852 19.581C29.9603 19.6686 30.1551 19.7095 30.3507 19.7C30.5446 19.7127 30.7385 19.6752 30.9136 19.5911C31.0888 19.507 31.2393 19.3792 31.3507 19.22C31.6043 18.7953 31.7229 18.3036 31.6907 17.81L31.5607 17.51Z" fill="white"/>
<path d="M38.43 21.76H37.52V20.4H33.9V21.75H33V19.63H33.44C33.6888 19.371 33.8707 19.0552 33.97 18.71C34.1076 18.2649 34.1915 17.805 34.22 17.34L34.36 14.9H37.83V19.64H38.53L38.43 21.76ZM34.43 19.64H36.79V15.64H35.22L35.13 17.19C35.1208 18.0494 34.8937 18.8923 34.47 19.64H34.43Z" fill="white"/>
<path d="M43.2797 18.61C43.2682 18.8731 43.2049 19.1313 43.0933 19.3698C42.9818 19.6083 42.8242 19.8225 42.6297 20C42.204 20.3439 41.6662 20.5184 41.1197 20.49C40.724 20.4884 40.3365 20.3777 39.9997 20.17C39.6616 19.955 39.3939 19.6455 39.2297 19.28C39.0414 18.8586 38.9459 18.4016 38.9497 17.94V17.43C38.9416 16.9583 39.0371 16.4906 39.2297 16.06C39.3975 15.6853 39.6723 15.3687 40.0197 15.15C40.378 14.9327 40.7907 14.8217 41.2097 14.83C41.7438 14.803 42.2686 14.9779 42.6797 15.32C43.0696 15.6848 43.3027 16.1867 43.3297 16.72H42.3297C42.3175 16.4011 42.1936 16.0967 41.9797 15.86C41.7534 15.6721 41.4631 15.5789 41.1697 15.6C40.9775 15.5841 40.7845 15.6181 40.6093 15.6987C40.4341 15.7793 40.2827 15.9037 40.1697 16.06C39.9204 16.4607 39.8016 16.9289 39.8297 17.4V17.89C39.8003 18.3649 39.9116 18.838 40.1497 19.25C40.252 19.4033 40.3925 19.5273 40.5573 19.6097C40.7222 19.6921 40.9057 19.7301 41.0897 19.72C41.3942 19.7442 41.6968 19.6552 41.9397 19.47C42.1551 19.2413 42.2827 18.9437 42.2997 18.63L43.2797 18.61Z" fill="white"/>
<path d="M45.7301 18H45.0801V20.4H44.0801V14.9H45.0801V17.21H45.6101L47.2301 14.9H48.4001L46.5101 17.54L48.5701 20.41H47.4201L45.7301 18Z" fill="white"/>
<path d="M52.56 19.12H50.42L50 20.4H49L51.08 14.89H51.94L54 20.4H53L52.56 19.12ZM50.7 18.35H52.3L51.5 16.07L50.7 18.35Z" fill="white"/>
<path d="M57.5695 20.4V18.35H56.4995L55.4395 20.4H54.4395L55.6695 18.06C55.4222 17.9462 55.2067 17.7733 55.042 17.5565C54.8773 17.3398 54.7684 17.0859 54.7249 16.8172C54.6815 16.5485 54.7048 16.2732 54.7927 16.0156C54.8807 15.758 55.0307 15.526 55.2295 15.34C55.6441 15.0227 56.158 14.8632 56.6795 14.89H58.5495V20.4H57.5695ZM55.6395 16.61C55.632 16.7428 55.6512 16.8758 55.6959 17.0012C55.7405 17.1265 55.8097 17.2417 55.8995 17.34C56.0056 17.4331 56.1293 17.504 56.2632 17.5487C56.3972 17.5933 56.5387 17.6108 56.6795 17.6H57.5695V15.67H56.6795C56.5378 15.6576 56.3951 15.6733 56.2595 15.7162C56.124 15.7591 55.9982 15.8284 55.8895 15.92C55.8019 16.0132 55.7345 16.1235 55.6915 16.2439C55.6485 16.3644 55.6308 16.4924 55.6395 16.62V16.61Z" fill="white"/>
<path d="M65.7904 18.61C65.7789 18.8731 65.7156 19.1313 65.604 19.3698C65.4925 19.6084 65.3349 19.8225 65.1404 20C64.7147 20.3439 64.1769 20.5184 63.6304 20.49C63.2221 20.4989 62.8198 20.3914 62.4704 20.18C62.1323 19.965 61.8646 19.6555 61.7004 19.29C61.5121 18.8686 61.4166 18.4116 61.4204 17.95V17.44C61.4123 16.9683 61.5078 16.5006 61.7004 16.07C61.8682 15.6954 62.143 15.3787 62.4904 15.16C62.8487 14.9427 63.2614 14.8317 63.6804 14.84C64.2145 14.813 64.7393 14.9879 65.1504 15.33C65.5403 15.6948 65.7734 16.1967 65.8004 16.73H64.8004C64.7882 16.4112 64.6643 16.1067 64.4504 15.87C64.2241 15.6821 63.9338 15.5889 63.6404 15.61C63.4482 15.5941 63.2552 15.6281 63.08 15.7087C62.9048 15.7893 62.7534 15.9137 62.6404 16.07C62.3911 16.4707 62.2723 16.9389 62.3004 17.41V17.9C62.271 18.3749 62.3823 18.848 62.6204 19.26C62.7227 19.4133 62.8632 19.5373 63.0281 19.6197C63.1929 19.7021 63.3764 19.7401 63.5604 19.73C63.8649 19.7542 64.1675 19.6652 64.4104 19.48C64.6259 19.2513 64.7534 18.9537 64.7704 18.64L65.7904 18.61Z" fill="white"/>
<path d="M67.5898 18.36V20.36H66.5898V14.9H68.6998C69.2327 14.8702 69.7573 15.0415 70.1698 15.38C70.3478 15.5389 70.4885 15.7351 70.5818 15.9546C70.6752 16.1742 70.7189 16.4116 70.7098 16.65C70.7229 16.8865 70.682 17.1228 70.5902 17.3411C70.4984 17.5594 70.358 17.754 70.1798 17.91C69.7533 18.2341 69.2244 18.3938 68.6898 18.36H67.5898ZM67.5898 17.59H68.7398C69.0207 17.61 69.2988 17.5244 69.5198 17.35C69.6123 17.2615 69.6844 17.154 69.731 17.0348C69.7776 16.9156 69.7977 16.7877 69.7898 16.66C69.7967 16.397 69.6997 16.1419 69.5198 15.95C69.42 15.856 69.3019 15.7835 69.1729 15.737C69.0439 15.6906 68.9067 15.6712 68.7698 15.68H67.5898V17.59Z" fill="white"/>
<path d="M74.7805 17.95H72.5205V19.64H75.1606V20.4H71.5605V14.9H75.1305V15.67H72.5205V17.19H74.7805V17.95Z" fill="white"/>
<path d="M81.2195 21.76H80.3095V20.4H76.6895V21.75H75.7695V19.63H76.2095C76.4583 19.371 76.6403 19.0552 76.7395 18.71C76.8806 18.2654 76.9679 17.8054 76.9995 17.34L77.1395 14.9H80.6095V19.64H81.3095L81.2195 21.76ZM77.2195 19.64H79.5795V15.64H77.9995L77.9095 17.19C77.9034 18.0485 77.6797 18.8914 77.2595 19.64H77.2195Z" fill="white"/>
<path d="M85.3398 19.12H83.2098L82.7598 20.4H81.7598L83.8398 14.89H84.6998L86.7798 20.4H85.7798L85.3398 19.12ZM83.4798 18.35H85.0798L84.2798 16.07L83.4798 18.35Z" fill="white"/>
<path d="M102.76 0.750004C102.81 0.75035 102.859 0.764555 102.901 0.791038C102.944 0.817521 102.978 0.855242 103 0.900004L141.51 107.13C141.532 107.168 141.543 107.211 141.543 107.255C141.543 107.299 141.532 107.342 141.51 107.38C141.485 107.418 141.451 107.45 141.411 107.473C141.371 107.495 141.326 107.508 141.28 107.51H141.17L0.9 34.34C0.853694 34.3171 0.814945 34.2813 0.788356 34.237C0.761767 34.1927 0.748455 34.1417 0.75 34.09V1C0.754644 0.935235 0.782474 0.87431 0.82839 0.828394C0.874306 0.782478 0.935231 0.754648 1 0.750004H102.76ZM102.76 3.93274e-06H1C0.734784 3.93274e-06 0.48043 0.105361 0.292893 0.292897C0.105357 0.480434 0 0.734787 0 1L0 34.1C0.000533568 34.2885 0.0543266 34.473 0.155177 34.6322C0.256027 34.7915 0.399828 34.919 0.57 35L140.81 108.14C140.952 108.213 141.11 108.251 141.27 108.25C141.444 108.266 141.62 108.235 141.778 108.162C141.937 108.089 142.074 107.975 142.175 107.833C142.277 107.69 142.339 107.523 142.355 107.349C142.372 107.175 142.342 106.999 142.27 106.84L103.72 0.650004C103.645 0.448625 103.508 0.276672 103.328 0.159604C103.147 0.0425354 102.934 -0.0134263 102.72 3.93274e-06H102.76Z" fill="white"/>
<path d="M105 27.1L142.17 106.8C142.272 106.983 142.314 107.194 142.289 107.402C142.265 107.611 142.176 107.806 142.034 107.961C141.893 108.116 141.706 108.222 141.501 108.265C141.295 108.308 141.082 108.285 140.89 108.2L24.32 65.76C24.1149 65.6887 23.9385 65.5525 23.8177 65.3721C23.6968 65.1917 23.6379 64.9769 23.65 64.76V27.53C23.65 27.2648 23.7553 27.0105 23.9429 26.8229C24.1304 26.6354 24.3848 26.53 24.65 26.53H104.1C104.288 26.5306 104.473 26.5844 104.632 26.6852C104.791 26.7861 104.919 26.9299 105 27.1Z" fill="#34404C"/>
<path d="M141.271 109C141.059 109 140.85 108.962 140.651 108.89L24.0609 66.48C23.7156 66.3549 23.4172 66.1265 23.2061 65.826C22.995 65.5255 22.8814 65.1673 22.8809 64.8V27.53C22.8809 27.0553 23.0694 26.6 23.4051 26.2643C23.7408 25.9286 24.1961 25.74 24.6709 25.74H104.101C104.437 25.7386 104.768 25.8315 105.054 26.0083C105.34 26.1851 105.571 26.4386 105.721 26.74L142.891 106.44C143.019 106.713 143.076 107.013 143.057 107.314C143.037 107.615 142.943 107.906 142.781 108.16C142.62 108.414 142.396 108.624 142.132 108.769C141.868 108.914 141.572 108.99 141.271 108.99V109ZM24.6709 27.27C24.6019 27.27 24.5358 27.2974 24.487 27.3462C24.4383 27.3949 24.4109 27.4611 24.4109 27.53V64.8C24.4096 64.8542 24.4253 64.9074 24.4558 64.9523C24.4863 64.9971 24.53 65.0313 24.5809 65.05L141.171 107.49C141.229 107.511 141.292 107.511 141.35 107.491C141.408 107.471 141.458 107.432 141.491 107.38C141.514 107.342 141.526 107.299 141.526 107.255C141.526 107.211 141.514 107.168 141.491 107.13L104.321 27.43C104.299 27.3852 104.264 27.3475 104.222 27.321C104.18 27.2946 104.131 27.2804 104.081 27.28L24.6709 27.27Z" fill="white"/>
<path d="M29.9095 33H28.1095V28.73H26.5295V38.81H28.1095V34.49H29.9095V38.81H31.5195V28.73H29.9095V33ZM50.9095 38.76V28.73H49.1395L47.8395 32.89L47.2595 35.11V28.73H45.8595V38.81H47.4895L48.8195 34.19L49.4695 31.71V38.81L50.9095 38.76ZM43.2495 40.11H44.7895V37.4H44.0995V28.73H42.4595V37.37H40.6595V28.73H39.0795V38.81H43.2295L43.2495 40.11ZM34.1495 28.73L32.5295 38.81H33.9995L34.2595 37H36.1995L36.4695 38.83H38.0695L36.4595 28.73H34.1495ZM34.4695 35.61L35.2295 30.51L35.9895 35.61H34.4695ZM79.7995 32.51H78.9995V28.73H77.4495V38.81H79.7795C81.3595 38.81 82.1395 37.93 82.1395 36.32V35C82.1495 33.39 81.3695 32.52 79.7895 32.52L79.7995 32.51ZM80.5795 36.41C80.5795 37.13 80.3095 37.36 79.7995 37.36H78.9995V34H79.7495C80.2495 34 80.5295 34.23 80.5295 35L80.5795 36.41ZM91.8795 32.51H91.1295V28.73H89.5395V38.81H91.8695C93.4495 38.81 94.2295 37.93 94.2295 36.32V35C94.2295 33.39 93.4495 32.52 91.8695 32.52L91.8795 32.51ZM92.6595 36.41C92.6595 37.13 92.3895 37.36 91.8795 37.36H91.1295V34H91.8795C92.3795 34 92.6595 34.23 92.6595 35V36.41ZM95.1495 38.8H96.7295V28.73H95.1395L95.1495 38.8ZM102.33 30.16V28.73H97.9995V38.81H102.32V37.37H99.5795V34.37H101.75V33H99.5795V30.17L102.33 30.16ZM86.6595 33H84.8595V28.73H83.2695V38.81H84.8495V34.49H86.6495V38.81H88.2595V28.73H86.6595V33ZM65.6595 28.68L64.0795 38.81H65.5295L65.7995 37H67.7395L67.9995 38.81H69.5995L67.9995 28.73L65.6595 28.68ZM65.9995 35.61L66.7595 30.51L67.5195 35.61H65.9995ZM62.9995 38.81V28.73H61.4395V33H59.6395V28.73H58.0495V38.81H59.6295V34.49H61.4295V38.81H62.9995ZM54.4095 38.93C54.7439 38.9571 55.08 38.9088 55.3932 38.7887C55.7063 38.6685 55.9885 38.4796 56.2189 38.2358C56.4492 37.9919 56.6219 37.6995 56.7241 37.3801C56.8264 37.0606 56.8556 36.7223 56.8095 36.39V31.15C56.8307 30.8211 56.7843 30.4914 56.673 30.1812C56.5618 29.871 56.3881 29.5869 56.1627 29.3465C55.9373 29.1061 55.6649 28.9144 55.3625 28.7834C55.0601 28.6524 54.7341 28.5848 54.4045 28.5848C54.075 28.5848 53.7489 28.6524 53.4465 28.7834C53.1441 28.9144 52.8718 29.1061 52.6464 29.3465C52.421 29.5869 52.2473 29.871 52.136 30.1812C52.0248 30.4914 51.9783 30.8211 51.9995 31.15V36.39C51.9519 36.7277 51.9819 37.0719 52.0875 37.3962C52.193 37.7205 52.3712 38.0165 52.6085 38.2615C52.8458 38.5065 53.1359 38.6941 53.4567 38.8099C53.7774 38.9258 54.1205 38.9668 54.4595 38.93H54.4095ZM53.6395 31C53.6395 30.28 53.9595 30 54.4595 30C54.9595 30 55.2795 30.28 55.2795 31V36.44C55.2795 37.16 54.9595 37.44 54.4595 37.44C53.9595 37.44 53.6395 37.17 53.6395 36.44V31ZM71.4195 36.3C71.4195 37.24 71.1595 37.3 70.4195 37.3V38.74H70.6595C72.2395 38.74 72.9095 38.02 72.9695 36.18L73.1395 30.09H74.5195V38.73H76.1295V28.73H71.6795L71.4195 36.3ZM35.1195 40.78H32.7895V50.91H34.3695V47.12H35.1195C36.6995 47.12 37.4795 46.24 37.4795 44.63V43.32C37.4795 41.71 36.7095 40.83 35.1195 40.83V40.78ZM35.8995 44.68C35.8995 45.4 35.6295 45.68 35.1195 45.68H34.3695V42.27H35.1195C35.6295 42.27 35.8995 42.5 35.8995 43.27V44.68ZM26.5295 50.86H28.1095V42.27H29.9095V50.91H31.5195V40.83H26.5195L26.5295 50.86ZM64.1995 44.62H63.4495V40.83H61.8595V50.91H64.1995C65.7795 50.91 66.5595 50.03 66.5595 48.42V47.11C66.5595 45.49 65.7795 44.62 64.1995 44.62ZM64.9795 48.52C64.9795 49.24 64.7095 49.52 64.1995 49.52H63.4495V46.05H64.1995C64.6995 46.05 64.9795 46.28 64.9795 47.05V48.52ZM44.4495 50.91H48.7695V49.47H45.9995V46.47H48.1795V45.08H45.9995V42.27H48.7395V40.83H44.4495V50.91ZM57.6195 50.91H59.1995V42.27H60.8595V40.83H55.9995V42.27H57.6595L57.6195 50.91ZM67.4695 50.91H69.0495V40.83H67.4695V50.91ZM53.5695 40.83L51.4895 45.22V40.83H49.9095V50.91H51.4995V47.81L51.9895 46.89L53.5295 50.89H55.1595L52.9595 45.3L55.1595 40.81L53.5695 40.83ZM40.8595 40.71C40.5254 40.6816 40.1891 40.7285 39.8755 40.8474C39.5619 40.9663 39.279 41.1541 39.0477 41.3969C38.8164 41.6398 38.6425 41.9315 38.539 42.2504C38.4355 42.5694 38.4049 42.9076 38.4495 43.24V48.48C38.4283 48.8089 38.4748 49.1386 38.586 49.4488C38.6973 49.759 38.871 50.0431 39.0964 50.2835C39.3218 50.5239 39.5941 50.7156 39.8965 50.8466C40.1989 50.9776 40.525 51.0452 40.8545 51.0452C41.1841 51.0452 41.5101 50.9776 41.8125 50.8466C42.1149 50.7156 42.3873 50.5239 42.6127 50.2835C42.8381 50.0431 43.0118 49.759 43.123 49.4488C43.2343 49.1386 43.2807 48.8089 43.2595 48.48V43.25C43.3056 42.9177 43.2764 42.5794 43.1741 42.2599C43.0719 41.9405 42.8992 41.6481 42.6689 41.4042C42.4385 41.1604 42.1563 40.9715 41.8432 40.8513C41.53 40.7312 41.1939 40.6829 40.8595 40.71ZM41.6795 48.59C41.6795 49.31 41.3595 49.59 40.8595 49.59C40.3595 49.59 40.0395 49.32 40.0395 48.59V43.15C40.0395 42.43 40.3595 42.15 40.8595 42.15C41.3595 42.15 41.6795 42.42 41.6795 43.15V48.59ZM57.9995 57.09L57.4195 59.31V52.92H55.9995V63H57.6295L58.9995 58.38L59.6495 55.9V63H61.0795V52.92H59.3095L57.9995 57.09ZM51.7195 57.09L51.1395 59.31V52.92H49.7495V63H51.3795L52.7095 58.38L53.3595 55.9V63H54.7795V52.92H52.9995L51.7195 57.09ZM40.4595 52.81C38.9095 52.81 38.0995 53.73 38.0995 55.34V60.58C38.0995 62.19 38.9095 63.12 40.4595 63.12C42.0095 63.12 42.8195 62.2 42.8195 60.58V59.25H41.3195V60.69C41.3195 61.41 40.9995 61.69 40.4995 61.69C39.9995 61.69 39.6795 61.43 39.6795 60.69V55.24C39.6795 54.52 39.9995 54.24 40.4995 54.24C40.9995 54.24 41.3195 54.51 41.3195 55.24V56.32H42.8195V55.32C42.8195 53.73 41.9995 52.81 40.4595 52.81ZM46.2595 52.81C44.7095 52.81 43.8995 53.73 43.8995 55.34V60.58C43.8995 62.19 44.7095 63.12 46.2595 63.12C47.8095 63.12 48.6195 62.2 48.6195 60.58V59.25H47.1195V60.69C47.1195 61.41 46.7995 61.69 46.2995 61.69C45.7995 61.69 45.4795 61.43 45.4795 60.69V55.24C45.4795 54.52 45.7995 54.24 46.2995 54.24C46.7995 54.24 47.1195 54.51 47.1195 55.24V56.32H48.6195V55.32C48.6195 53.73 47.8095 52.81 46.2595 52.81ZM34.5995 52.81C34.2662 52.7832 33.931 52.8313 33.6187 52.9509C33.3064 53.0705 33.0248 53.2585 32.7946 53.5012C32.5644 53.7438 32.3915 54.0349 32.2885 54.3531C32.1856 54.6713 32.1552 55.0085 32.1995 55.34V60.58C32.1535 60.9123 32.1827 61.2506 32.2849 61.5701C32.3872 61.8895 32.5598 62.182 32.7902 62.4258C33.0206 62.6696 33.3027 62.8585 33.6159 62.9787C33.9291 63.0988 34.2652 63.1471 34.5995 63.12C34.9329 63.1468 35.268 63.0987 35.5804 62.9791C35.8927 62.8595 36.1743 62.6715 36.4045 62.4288C36.6346 62.1862 36.8075 61.8951 36.9105 61.5769C37.0135 61.2587 37.0439 60.9215 36.9995 60.59V55.34C37.0439 55.0085 37.0135 54.6713 36.9105 54.3531C36.8075 54.0349 36.6346 53.7438 36.4045 53.5012C36.1743 53.2585 35.8927 53.0705 35.5804 52.9509C35.268 52.8313 34.9329 52.7832 34.5995 52.81V52.81ZM35.4195 60.69C35.4195 61.41 35.0995 61.69 34.5995 61.69C34.0995 61.69 33.7795 61.41 33.7795 60.69V55.24C33.7795 54.52 34.0995 54.24 34.5995 54.24C35.0995 54.24 35.4195 54.51 35.4195 55.24V60.69ZM28.8595 52.93H26.5295V63H28.1095V59.22H28.8595C30.4495 59.22 31.2195 58.34 31.2195 56.73V55.42C31.2195 53.8 30.4495 52.92 28.8595 52.92V52.93ZM29.6395 56.83C29.6395 57.55 29.3595 57.83 28.8595 57.83H28.1095V54.36H28.8595C29.3595 54.36 29.6395 54.59 29.6395 55.36V56.83Z" fill="white"/>
</g>
<defs>
<clipPath id="clip0_1084_2207">
<rect width="143.06" height="109.03" fill="white"/>
</clipPath>
</defs>
</svg>
