<svg width="121" height="145" viewBox="0 0 121 145" fill="none" xmlns="http://www.w3.org/2000/svg">
<path d="M20.2097 18.0016C30.7148 8.24914 45.0371 3.28143 60.5 3.28143C75.963 3.28143 90.2853 8.24914 100.79 18.0016C111.35 27.8048 117.667 42.0892 117.667 59.9084C117.667 73.4441 110.118 88.588 101.354 101.814C92.448 115.254 81.6586 127.626 74.0022 135.81C66.6323 143.688 54.3678 143.688 46.9979 135.81C39.3415 127.626 28.5521 115.254 19.6461 101.814C10.8821 88.588 3.33337 73.4441 3.33337 59.9084C3.33337 42.0892 9.64983 27.8048 20.2097 18.0016ZM48.0834 52.9898C48.0834 46.1322 53.6425 40.5731 60.5 40.5731C67.3576 40.5731 72.9167 46.1322 72.9167 52.9898C72.9167 59.8473 67.3576 65.4064 60.5 65.4064C53.6425 65.4064 48.0834 59.8473 48.0834 52.9898ZM60.5 20.6564C42.6428 20.6564 28.1667 35.1326 28.1667 52.9898C28.1667 70.847 42.6428 85.3231 60.5 85.3231C78.3572 85.3231 92.8334 70.847 92.8334 52.9898C92.8334 35.1326 78.3572 20.6564 60.5 20.6564Z" fill="#01A358" stroke="white" stroke-width="5" stroke-linejoin="round"/>
</svg>
