<svg width="185" height="155" viewBox="0 0 185 155" fill="none" xmlns="http://www.w3.org/2000/svg">
<g clip-path="url(#clip0_1084_2180)">
<path d="M29.9 139.23H21.18V148.69H29.9V139.23ZM19.9 136.68H31.17C31.3419 136.679 31.5123 136.712 31.6709 136.778C31.8296 136.845 31.973 136.942 32.0927 137.066C32.2124 137.189 32.3058 137.336 32.3672 137.496C32.4286 137.657 32.4568 137.828 32.45 138V150C32.45 150.167 32.4172 150.332 32.3533 150.486C32.2895 150.64 32.196 150.78 32.078 150.898C31.9601 151.016 31.8201 151.11 31.666 151.173C31.5119 151.237 31.3468 151.27 31.18 151.27H19.9C19.564 151.267 19.2425 151.133 19.0049 150.895C18.7673 150.658 18.6326 150.336 18.63 150V138C18.6233 137.829 18.6511 137.659 18.7119 137.499C18.7727 137.339 18.8652 137.193 18.9838 137.069C19.1024 136.946 19.2447 136.848 19.4022 136.781C19.5596 136.714 19.7289 136.68 19.9 136.68V136.68ZM35.67 151.24V138C35.6672 137.732 35.7493 137.469 35.9048 137.251C36.0602 137.032 36.2809 136.868 36.5352 136.783C36.7895 136.697 37.0643 136.694 37.3203 136.775C37.5762 136.855 37.8002 137.015 37.96 137.23L44.27 143.97L50.67 137.13C50.8447 136.946 51.0703 136.819 51.3178 136.765C51.5653 136.711 51.8234 136.732 52.0589 136.825C52.2944 136.919 52.4965 137.081 52.6393 137.29C52.782 137.499 52.8589 137.747 52.86 138V138V151.27H50.32V141.18L45.14 146.71C44.8942 146.939 44.568 147.061 44.2326 147.049C43.8972 147.038 43.5799 146.894 43.35 146.65L38.23 141.18V151.24H35.67ZM56.1 151.24V137.95C56.1 137.783 56.1329 137.618 56.1967 137.464C56.2605 137.31 56.354 137.17 56.472 137.052C56.5899 136.934 56.7299 136.841 56.884 136.777C57.0381 136.713 57.2032 136.68 57.37 136.68H68.63C68.7968 136.68 68.9619 136.713 69.116 136.777C69.2701 136.841 69.4101 136.934 69.528 137.052C69.646 137.17 69.7395 137.31 69.8033 137.464C69.8672 137.618 69.9 137.783 69.9 137.95V151.24H67.36V139.24H58.65V151.24H56.1ZM81.83 112H73.64V115.45H79V118H73.64V121.46H81.83V124H72.37C72.2024 124 72.0364 123.967 71.8817 123.902C71.7269 123.838 71.5865 123.744 71.4684 123.625C71.3504 123.506 71.257 123.364 71.1938 123.209C71.1306 123.054 71.0987 122.888 71.1 122.72V110.72C71.1 110.383 71.2338 110.06 71.472 109.822C71.7101 109.584 72.0332 109.45 72.37 109.45H81.84L81.83 112ZM83.83 139.23H75.69V142.68H81V145.23H75.69V148.69H83.88V151.24H74.41C74.0783 151.24 73.7597 151.11 73.5224 150.879C73.2851 150.647 73.1478 150.332 73.14 150V138C73.14 137.832 73.1732 137.666 73.2376 137.512C73.3021 137.357 73.3965 137.216 73.5155 137.098C73.6345 136.98 73.7757 136.887 73.9309 136.824C74.0862 136.761 74.2524 136.729 74.42 136.73H83.89L83.83 139.23ZM114.83 139.23H106.64V142.68H111.99V145.23H106.64V148.69H114.83V151.24H105.36C105.192 151.24 105.026 151.207 104.872 151.142C104.717 151.078 104.576 150.984 104.458 150.865C104.34 150.746 104.247 150.604 104.184 150.449C104.121 150.294 104.089 150.128 104.09 149.96V137.96C104.093 137.624 104.227 137.302 104.465 137.065C104.702 136.827 105.024 136.693 105.36 136.69H114.83V139.23ZM87.61 115.46H96.29V109.46H98.84V124H96.29V118H87.61V124H85.06V109.45H87.61V115.46ZM120.68 142.69H129.36V136.69H131.91V151.25H129.36V145.25H120.68V151.25H118.13V136.68H120.68V142.69ZM107.68 124.02V112H102.04V109.45H115.9V112H110.26V124L107.68 124.02ZM92.68 151.24V139.24H87.11V136.69H100.94V139.24H95.3V151.24H92.68ZM121.68 112V116.84H130.37V112H121.68ZM119.13 124V109.45H131.65C131.987 109.45 132.31 109.584 132.548 109.822C132.786 110.06 132.92 110.383 132.92 110.72V118.11C132.92 118.447 132.786 118.77 132.548 119.008C132.31 119.246 131.987 119.38 131.65 119.38H121.65V124H119.13ZM54.5 109.45V121.45H63.24V109.45H65.8V121.45H67.94C68.198 121.452 68.4496 121.531 68.6616 121.678C68.8737 121.825 69.0363 122.033 69.1282 122.274C69.2202 122.515 69.237 122.779 69.1767 123.029C69.1163 123.28 68.9815 123.507 68.79 123.68L65.07 127.54L63.24 125.78L64.94 124H53.23C52.901 123.987 52.5896 123.848 52.3605 123.611C52.1314 123.375 52.0023 123.059 52 122.73V109.45H54.5ZM137.69 136.67V148.67H146.43V136.67H149V148.67H151.14C151.402 148.666 151.659 148.743 151.875 148.89C152.092 149.038 152.258 149.249 152.35 149.494C152.442 149.739 152.455 150.007 152.389 150.261C152.323 150.514 152.18 150.741 151.98 150.91L148.35 154.79L146.5 153.06L148.21 151.23H136.42C136.081 151.23 135.755 151.095 135.515 150.855C135.275 150.615 135.14 150.289 135.14 149.95V136.68L137.69 136.67ZM173.6 136.67V146.75L182.66 137.07C182.835 136.886 183.06 136.759 183.308 136.705C183.555 136.651 183.813 136.672 184.049 136.765C184.284 136.859 184.487 137.021 184.629 137.23C184.772 137.439 184.849 137.687 184.85 137.94V151.23H182.31V141.16L173.31 150.75C173.15 150.966 172.926 151.125 172.67 151.205C172.414 151.286 172.139 151.283 171.885 151.197C171.631 151.112 171.41 150.948 171.255 150.729C171.099 150.511 171.017 150.248 171.02 149.98V136.68L173.6 136.67ZM181.45 133.21L178.59 136.27C178.354 136.487 178.045 136.607 177.725 136.606C177.405 136.604 177.097 136.482 176.863 136.263C176.629 136.044 176.486 135.745 176.463 135.426C176.44 135.106 176.539 134.79 176.74 134.54L179.6 131.48L181.45 133.21ZM156.57 136.67V146.75L165.63 137.07C165.805 136.886 166.03 136.759 166.278 136.705C166.525 136.651 166.783 136.672 167.019 136.765C167.254 136.859 167.457 137.021 167.599 137.23C167.742 137.439 167.819 137.687 167.82 137.94V151.23H165.28V141.16L156.28 150.75C156.12 150.96 155.898 151.115 155.646 151.193C155.394 151.271 155.124 151.269 154.873 151.187C154.622 151.104 154.403 150.946 154.247 150.733C154.09 150.52 154.004 150.264 154 150V136.7L156.57 136.67ZM2.57 136.67V142.67H11.27V136.67H13.8V144C13.8 144.338 13.6665 144.662 13.4286 144.902C13.1908 145.141 12.8677 145.277 12.53 145.28H10.53L15.96 151.28L14.08 152.98L7.08 145.28H2.55V151.28H0V136.68L2.57 136.67Z" fill="white"/>
<path d="M87.3507 13.06C88.4578 12.2062 89.7576 11.6373 91.1359 11.4031C92.5142 11.169 93.929 11.2768 95.2559 11.7172C96.5828 12.1575 97.7813 12.9169 98.7462 13.9287C99.7111 14.9404 100.413 16.1736 100.79 17.5199C101.167 18.8662 101.207 20.2844 100.908 21.6501C100.609 23.0158 99.9791 24.2872 99.0738 25.3526C98.1685 26.4179 97.0155 27.2447 95.7159 27.7604C94.4164 28.2761 93.0102 28.4648 91.6207 28.31H91.4707C89.252 28.0175 87.2361 26.8677 85.8548 25.107C84.4735 23.3462 83.8367 21.1146 84.0807 18.89V18.74C84.223 17.6279 84.5843 16.5551 85.1439 15.5836C85.7035 14.612 86.4501 13.7611 87.3407 13.08L87.3507 13.06ZM93.3407 14.24C91.8527 14.0478 90.3492 14.4542 89.1607 15.37C87.9945 16.2517 87.2193 17.5545 87.0007 19V19.05C86.8124 20.5393 87.2223 22.0425 88.1407 23.23C89.0353 24.4046 90.3582 25.1775 91.8207 25.38H91.8707C93.3369 25.57 94.8192 25.1788 96.0007 24.29C96.5874 23.8409 97.0795 23.2801 97.4485 22.6399C97.8175 21.9997 98.0561 21.2929 98.1507 20.56C98.2431 19.8219 98.1891 19.0728 97.9918 18.3556C97.7944 17.6383 97.4577 16.967 97.0007 16.38C96.103 15.2041 94.7764 14.4311 93.3107 14.23L93.3407 14.24ZM106.001 9.48003C103.956 6.83301 101.173 4.85141 98.0021 3.78559C94.8316 2.71976 91.4164 2.61754 88.1879 3.49182C84.9594 4.3661 82.0624 6.17766 79.863 8.69763C77.6636 11.2176 76.2604 14.3329 75.8307 17.65V17.65C75.2545 22.0927 76.4637 26.5826 79.1932 30.135C81.9226 33.6874 85.9495 36.0124 90.3907 36.6V36.6C93.7143 37.0403 97.0937 36.4833 100.1 34.9998C103.107 33.5162 105.605 31.1729 107.277 28.2672C108.95 25.3616 109.721 22.0245 109.494 18.6796C109.267 15.3348 108.051 12.1328 106.001 9.48003V9.48003ZM95.0807 0.160028C100.242 0.884843 104.91 3.61339 108.074 7.75488C111.238 11.8964 112.643 17.1174 111.986 22.2876C111.329 27.4578 108.661 32.161 104.561 35.3788C100.461 38.5966 95.259 40.07 90.0807 39.48C84.8688 38.8188 80.1327 36.1154 76.9131 31.9639C73.6936 27.8124 72.254 22.5525 72.9107 17.34V17.34C73.2368 14.7556 74.0691 12.2608 75.3601 9.99829C76.6511 7.73578 78.3754 5.74995 80.4344 4.15435C82.4935 2.55876 84.8468 1.3847 87.36 0.69932C89.8731 0.0139399 92.4967 -0.169317 95.0807 0.160028V0.160028ZM65.0807 88.28L135.391 38L128.671 28.93L92.1607 54.35L65.0807 88.28ZM105.721 62.8L137.271 85L129.151 96.55L93.5707 71.55L58.5707 96.62L47.4707 87.79L72.4707 56.46L47.6507 38.3L56.0007 26.92L90.3307 52.08L129.331 24.92L139.491 38.63L105.721 62.8Z" fill="white"/>
</g>
<defs>
<clipPath id="clip0_1084_2180">
<rect width="184.85" height="154.8" fill="white"/>
</clipPath>
</defs>
</svg>
