<svg width="235" height="179" viewBox="0 0 235 179" fill="none" xmlns="http://www.w3.org/2000/svg">
<g clip-path="url(#clip0_1084_2183)">
<path d="M17.4001 14.38H16.3901V18.29H14.8201V14.38H13.7601L11.5401 18.29H9.58008L12.5001 13.47L9.77008 9.22998H11.6701L13.8401 13.01H14.8201V9.22998H16.3901V13.01H17.3201L19.4701 9.22998H21.3701L18.6701 13.46L21.5601 18.29H19.6101L17.4001 14.38Z" fill="#45B97C"/>
<path d="M28.2102 9.22998H29.7902V18.29H28.2102V11.84L24.2302 18.29H22.6602V9.22998H24.2302V15.69L28.2102 9.22998Z" fill="#45B97C"/>
<path d="M38.81 9.22998V18.3H37.24V10.5H34.47L34.31 14C34.2868 14.8636 34.1524 15.7207 33.91 16.55C33.7565 17.0791 33.4376 17.5452 33 17.88C32.5333 18.1803 31.9843 18.3272 31.43 18.3H31V17H31.25C31.5687 16.987 31.8699 16.8508 32.09 16.62C32.3209 16.3293 32.4756 15.9856 32.54 15.62C32.6651 14.9603 32.7353 14.2913 32.75 13.62L33 9.22998H38.81Z" fill="#45B97C"/>
<path d="M42.2399 12.7H44.0999C44.6978 12.6854 45.2916 12.8014 45.8399 13.04C46.3147 13.2354 46.7192 13.5701 46.9999 14C47.2642 14.4405 47.3994 14.9464 47.3899 15.46C47.399 15.8356 47.3268 16.2088 47.1784 16.5539C47.03 16.8991 46.8088 17.2082 46.5299 17.46C45.8701 18.0018 45.0328 18.2797 44.1799 18.24H40.6699V9.22998H42.2499L42.2399 12.7ZM42.2399 13.97V17H44.0899C44.3147 17.0135 44.54 16.9825 44.7528 16.9087C44.9656 16.8349 45.1617 16.7198 45.3299 16.57C45.4812 16.4205 45.5995 16.2408 45.677 16.0427C45.7545 15.8446 45.7896 15.6325 45.7799 15.42C45.7892 15.2188 45.7546 15.0181 45.6787 14.8316C45.6027 14.6451 45.4871 14.4774 45.3399 14.34C44.9944 14.0848 44.5679 13.964 44.1399 14L42.2399 13.97Z" fill="#45B97C"/>
<path d="M53.9602 14.25H50.2302V17.04H54.5902V18.29H48.6602V9.22998H54.5402V10.5H50.2302V13H53.9602V14.25Z" fill="#45B97C"/>
<path d="M15.9094 24.53H17.4894V33.6H15.9094V27.14L11.9394 33.6H10.3594V24.53H11.9394V30.99L15.9094 24.53Z" fill="#45B97C"/>
<path d="M28.3496 25.8H24.1596V33.6H22.5996V24.53H28.3496V25.8Z" fill="#45B97C"/>
<path d="M36.5995 29.3C36.6172 30.1041 36.4602 30.9024 36.1395 31.64C35.8621 32.273 35.4026 32.8091 34.8195 33.18C34.2233 33.5338 33.5428 33.7205 32.8495 33.7205C32.1562 33.7205 31.4757 33.5338 30.8795 33.18C30.2946 32.8083 29.832 32.2727 29.5495 31.64C29.2217 30.9181 29.0577 30.1327 29.0695 29.34V28.83C29.0533 28.025 29.2137 27.2263 29.5395 26.49C29.8204 25.8535 30.2831 25.3143 30.8695 24.94C31.4688 24.5679 32.1643 24.3801 32.8695 24.4C33.5734 24.3795 34.2681 24.5636 34.8695 24.93C35.4507 25.2987 35.91 25.831 36.1895 26.46C36.5141 27.1931 36.6745 27.9883 36.6595 28.79L36.5995 29.3ZM34.9995 28.83C35.0482 28.02 34.8494 27.2143 34.4295 26.52C34.2434 26.2697 34.0013 26.0664 33.7226 25.9263C33.444 25.7862 33.1364 25.7133 32.8245 25.7133C32.5126 25.7133 32.205 25.7862 31.9263 25.9263C31.6476 26.0664 31.4056 26.2697 31.2195 26.52C30.7953 27.1948 30.5893 27.9839 30.6295 28.78V29.3C30.5792 30.1114 30.7819 30.9185 31.2095 31.61C31.3883 31.8723 31.6306 32.0851 31.9139 32.2285C32.1972 32.3719 32.5122 32.4412 32.8295 32.43C33.1436 32.4436 33.456 32.3773 33.7375 32.2374C34.0191 32.0975 34.2606 31.8885 34.4395 31.63C34.8599 30.9288 35.0553 30.1156 34.9995 29.3V28.83Z" fill="#45B97C"/>
<path d="M39.7304 30.23V33.6H38.1504V24.53H41.6204C42.4941 24.4838 43.3536 24.7655 44.0304 25.32C44.3252 25.5821 44.558 25.9066 44.7119 26.2698C44.8658 26.633 44.937 27.0259 44.9204 27.42C44.943 27.81 44.8764 28.2001 44.7257 28.5605C44.5749 28.9209 44.344 29.2422 44.0504 29.5C43.3486 30.0318 42.4793 30.2944 41.6004 30.24L39.7304 30.23ZM39.7304 28.96H41.6204C42.0819 28.9905 42.5383 28.8479 42.9004 28.56C43.0523 28.4134 43.1703 28.2355 43.2463 28.0386C43.3223 27.8417 43.3544 27.6306 43.3404 27.42C43.3504 27.2045 43.3155 26.9892 43.2381 26.7878C43.1606 26.5864 43.0422 26.4033 42.8904 26.25C42.5558 25.9437 42.1137 25.7819 41.6604 25.8H39.7304V28.96Z" fill="#45B97C"/>
<path d="M53.621 29.3C53.6387 30.1041 53.4817 30.9024 53.161 31.64C52.8836 32.273 52.4241 32.8091 51.841 33.18C51.2448 33.5338 50.5643 33.7205 49.871 33.7205C49.1777 33.7205 48.4972 33.5338 47.901 33.18C47.3161 32.8083 46.8535 32.2727 46.571 31.64C46.2431 30.9181 46.0792 30.1327 46.091 29.34V28.83C46.0748 28.025 46.2352 27.2263 46.561 26.49C46.8419 25.8535 47.3046 25.3143 47.891 24.94C48.4903 24.5679 49.1858 24.3801 49.891 24.4C50.5949 24.3795 51.2896 24.5636 51.891 24.93C52.4722 25.2987 52.9315 25.831 53.211 26.46C53.5356 27.1931 53.696 27.9883 53.681 28.79L53.621 29.3ZM52.001 28.83C52.0497 28.02 51.8509 27.2143 51.431 26.52C51.2449 26.2697 51.0028 26.0664 50.7241 25.9263C50.4454 25.7862 50.1379 25.7133 49.826 25.7133C49.5141 25.7133 49.2065 25.7862 48.9278 25.9263C48.6491 26.0664 48.4071 26.2697 48.221 26.52C47.7968 27.1948 47.5908 27.9839 47.631 28.78V29.3C47.5807 30.1114 47.7833 30.9185 48.211 31.61C48.3898 31.8723 48.6321 32.0851 48.9154 32.2285C49.1987 32.3719 49.5137 32.4412 49.831 32.43C50.1451 32.4436 50.4575 32.3773 50.739 32.2374C51.0206 32.0975 51.2621 31.8885 51.441 31.63C51.8613 30.9288 52.0568 30.1156 52.001 29.3V28.83Z" fill="#45B97C"/>
<path d="M63.2808 35.83H61.7908V33.6H55.7908V35.83H54.3008V32.34H55.0008C55.4105 31.9119 55.7092 31.3901 55.8708 30.82C56.1004 30.0861 56.2414 29.3274 56.2908 28.56L56.5308 24.56H62.2508V32.37H63.4008L63.2808 35.83ZM56.7508 32.34H60.6408V25.8H58.0008L57.8508 28.35C57.8291 29.7537 57.4542 31.1293 56.7608 32.35" fill="#45B97C"/>
<path d="M71.2599 30.64C71.2167 31.5053 70.8319 32.3181 70.1899 32.9C69.4913 33.4663 68.6081 33.7547 67.7099 33.71C67.0377 33.7248 66.3752 33.5479 65.7999 33.2C65.2433 32.8475 64.8019 32.34 64.5299 31.74C64.2167 31.049 64.0564 30.2986 64.0599 29.54V28.7C64.0427 27.9228 64.1963 27.1513 64.5099 26.44C64.7843 25.8191 65.2367 25.2936 65.8099 24.93C66.4115 24.5641 67.1061 24.38 67.8099 24.4C68.6896 24.3568 69.5534 24.6459 70.2299 25.21C70.8662 25.8115 71.2459 26.6354 71.2899 27.51H69.6899C69.6702 26.9879 69.4685 26.4891 69.1199 26.1C68.7458 25.7886 68.2654 25.6344 67.7799 25.67C67.475 25.6541 67.1709 25.7143 66.8951 25.8453C66.6193 25.9762 66.3804 26.1737 66.1999 26.42C65.791 27.0781 65.5954 27.8465 65.6399 28.62V29.42C65.5933 30.2024 65.7776 30.9814 66.1699 31.66C66.3385 31.9102 66.5688 32.1126 66.8387 32.2475C67.1085 32.3824 67.4086 32.4453 67.7099 32.43C68.2108 32.4662 68.707 32.3127 69.0999 32C69.4566 31.6222 69.666 31.129 69.6899 30.61L71.2599 30.64Z" fill="#45B97C"/>
<path d="M75.3002 29.71H74.2302V33.6H72.6602V24.53H74.2302V28.34H75.0901L77.7602 24.53H79.6902L76.5802 28.87L79.9702 33.6H78.0702L75.3002 29.71Z" fill="#45B97C"/>
<path d="M86.5404 31.49H83.0004L82.2704 33.6H80.6504L84.0704 24.53H85.4804L88.9104 33.6H87.2804L86.5404 31.49ZM83.4704 30.22H86.1004L84.7904 26.46L83.4704 30.22Z" fill="#45B97C"/>
<path d="M94.7896 33.6V30.21H92.9996L91.2796 33.6H89.5996L91.5996 29.75C91.1949 29.5614 90.8424 29.2768 90.5728 28.9209C90.3032 28.565 90.1247 28.1486 90.0527 27.708C89.9808 27.2674 90.0176 26.8158 90.1599 26.3926C90.3023 25.9695 90.5459 25.5875 90.8696 25.28C91.5534 24.7579 92.4004 24.4956 93.2596 24.54H96.3396V33.6H94.7896ZM91.6096 27.37C91.5958 27.5887 91.6269 27.808 91.7008 28.0144C91.7747 28.2207 91.89 28.4098 92.0396 28.57C92.2151 28.7241 92.4196 28.8416 92.6411 28.9154C92.8627 28.9893 93.0968 29.018 93.3296 29H94.7896V25.8H93.3296C93.0959 25.7809 92.8608 25.8082 92.6377 25.8803C92.4146 25.9524 92.208 26.0678 92.0296 26.22C91.8847 26.3728 91.7727 26.5537 91.7004 26.7515C91.6282 26.9493 91.5973 27.1598 91.6096 27.37Z" fill="#45B97C"/>
<path d="M108.33 30.64C108.287 31.5053 107.902 32.3181 107.26 32.9C106.562 33.4663 105.678 33.7547 104.78 33.71C104.108 33.7248 103.446 33.5479 102.87 33.2C102.314 32.8475 101.872 32.34 101.6 31.74C101.287 31.049 101.127 30.2986 101.13 29.54V28.7C101.113 27.9228 101.267 27.1513 101.58 26.44C101.855 25.8191 102.307 25.2936 102.88 24.93C103.482 24.5641 104.176 24.38 104.88 24.4C105.76 24.3568 106.624 24.6459 107.3 25.21C107.937 25.8115 108.316 26.6354 108.36 27.51H106.79C106.77 26.9879 106.569 26.4891 106.22 26.1C105.846 25.7886 105.366 25.6344 104.88 25.67C104.575 25.6541 104.271 25.7143 103.995 25.8453C103.72 25.9762 103.481 26.1737 103.3 26.42C102.891 27.0781 102.696 27.8465 102.74 28.62V29.42C102.694 30.2024 102.878 30.9814 103.27 31.66C103.439 31.9102 103.669 32.1126 103.939 32.2475C104.209 32.3824 104.509 32.4453 104.81 32.43C105.31 32.4691 105.806 32.3192 106.2 32.01C106.557 31.6322 106.766 31.139 106.79 30.62L108.33 30.64Z" fill="#45B97C"/>
<path d="M111.279 30.23V33.6H109.699V24.53H113.169C114.043 24.4838 114.902 24.7655 115.579 25.32C115.874 25.5821 116.107 25.9066 116.261 26.2698C116.415 26.633 116.486 27.0259 116.469 27.42C116.492 27.81 116.425 28.2001 116.274 28.5605C116.124 28.9209 115.893 29.2422 115.599 29.5C114.897 30.0318 114.028 30.2944 113.149 30.24L111.279 30.23ZM111.279 28.96H113.169C113.631 28.9905 114.087 28.8479 114.449 28.56C114.601 28.4134 114.719 28.2355 114.795 28.0386C114.871 27.8417 114.903 27.6306 114.889 27.42C114.899 27.2045 114.864 26.9892 114.787 26.7878C114.709 26.5864 114.591 26.4033 114.439 26.25C114.105 25.9437 113.663 25.7819 113.209 25.8H111.269L111.279 28.96Z" fill="#45B97C"/>
<path d="M123.13 29.55H119.41V32.34H123.76V33.6H117.83V24.53H123.72V25.8H119.41V28.3H123.13V29.55Z" fill="#45B97C"/>
<path d="M133.74 35.83H132.25V33.6H126.25V35.83H124.73V32.34H125.46C125.87 31.9119 126.169 31.3901 126.33 30.82C126.56 30.0861 126.701 29.3274 126.75 28.56L126.99 24.56H132.71V32.37H133.86L133.74 35.83ZM127.21 32.34H131.1V25.8H128.45L128.3 28.35C128.279 29.7537 127.904 31.1293 127.21 32.35" fill="#45B97C"/>
<path d="M140.521 31.49H137.001L136.271 33.6H134.631L138.051 24.53H139.461L142.891 33.6H141.251L140.521 31.49ZM137.451 30.22H140.081L138.771 26.46L137.451 30.22Z" fill="#45B97C"/>
<path d="M169.21 1.24C169.295 1.23747 169.379 1.25975 169.452 1.30414C169.525 1.34852 169.583 1.41309 169.62 1.49L233 176.4C233.035 176.463 233.053 176.533 233.053 176.605C233.053 176.677 233.035 176.747 233 176.81C232.958 176.872 232.901 176.924 232.835 176.96C232.769 176.997 232.695 177.017 232.62 177.02C232.557 177.034 232.493 177.034 232.43 177.02L1.49 56.55C1.4154 56.513 1.35253 56.456 1.30839 56.3854C1.26425 56.3148 1.24058 56.2333 1.24 56.15V1.69C1.24 1.57065 1.28741 1.45619 1.3718 1.3718C1.45619 1.28741 1.57065 1.24 1.69 1.24H169.21ZM169.21 0H1.69C1.24178 0 0.811926 0.178053 0.49499 0.49499C0.178053 0.811926 8.309e-08 1.24178 8.309e-08 1.69V56.14C-9.80942e-05 56.4531 0.0868087 56.7602 0.251025 57.0268C0.415241 57.2934 0.650308 57.5092 0.93 57.65L231.83 178.07C232.066 178.187 232.326 178.249 232.59 178.25C232.866 178.248 233.137 178.179 233.38 178.049C233.623 177.918 233.831 177.731 233.985 177.503C234.14 177.274 234.236 177.012 234.267 176.738C234.297 176.464 234.261 176.187 234.16 175.93L170.78 1.07C170.656 0.754827 170.44 0.484287 170.16 0.293486C169.88 0.102686 169.549 0.000433951 169.21 0" fill="#45B97C"/>
<path d="M173 44.6L234.2 175.83C234.341 176.133 234.388 176.471 234.337 176.801C234.286 177.131 234.138 177.438 233.912 177.684C233.687 177.93 233.393 178.104 233.069 178.183C232.744 178.263 232.404 178.244 232.09 178.13L40.09 108.26C39.7695 108.138 39.4936 107.922 39.2989 107.64C39.1042 107.358 39 107.023 39 106.68V45.31C39 44.8618 39.1781 44.4319 39.495 44.115C39.8119 43.798 40.2418 43.62 40.69 43.62H171.44C171.764 43.6224 172.081 43.718 172.352 43.8953C172.623 44.0726 172.838 44.3242 172.97 44.62" fill="#45B97C"/>
<path d="M48.9991 54.4H45.9991V47.16H43.2891V64.06H45.9491V56.82H48.9491V64.07H51.6591V47.16H48.9991V54.4ZM84.1691 64.06V47.16H81.2091L79.0391 54.16L78.0391 57.88V47.16H75.6991V64.06H78.4291L80.6491 56.31L81.7391 52.15V64.06H84.1691ZM71.2891 66.33H73.8691V61.7H72.7191V47.16H69.9991V61.65H66.9991V47.16H64.3391V64.06H71.3391L71.2891 66.33ZM56.0691 47.16L53.3591 64.06H55.7991L56.2591 61H59.5191L59.9991 64.06H62.6791L59.9991 47.16H56.0691ZM56.5991 58.71L57.8791 50.16L59.1591 58.71H56.5991ZM132.599 53.52H131.339V47.16H128.679V64.06H132.589C135.239 64.06 136.589 62.59 136.589 59.88V57.68C136.589 54.97 135.289 53.5 132.589 53.5L132.599 53.52ZM133.899 60.04C133.899 61.25 133.439 61.63 132.589 61.63H131.329V55.93H132.589C133.429 55.93 133.899 56.32 133.899 57.53V60.04ZM152.849 53.5H151.599V47.16H148.939V64.06H152.849C155.509 64.06 156.849 62.59 156.849 59.88V57.68C156.849 54.97 155.549 53.5 152.849 53.5ZM154.149 60.04C154.149 61.25 153.689 61.63 152.849 61.63H151.599V55.93H152.849C153.699 55.93 154.149 56.32 154.149 57.53V60.04ZM158.329 64.04H160.999V47.16H158.339L158.329 64.04ZM170.329 49.55V47.16H163.089V64.06H170.329V61.65H165.739V56.65H169.389V54.28H165.739V49.57L170.329 49.55ZM144.119 54.4H141.119V47.16H138.469V64.06H141.119V56.82H144.119V64.07H146.829V47.16H144.119V54.4ZM108.999 47.16L106.289 64.07H108.729L109.189 61H112.449L112.899 64.07H115.579L112.869 47.16H108.999ZM109.529 58.71L110.809 50.16L111.999 58.7L109.529 58.71ZM104.529 64.07V47.16H101.829V54.4H98.8291V47.16H96.1591V64.06H98.8091V56.82H101.809V64.07H104.529ZM90.1291 64.26C92.7291 64.26 94.1291 62.71 94.1291 60.01V51.22C94.1291 48.51 92.7091 46.97 90.1291 46.97C87.5491 46.97 86.1291 48.51 86.1291 51.22V60C86.1291 62.7 87.5591 64.25 90.1291 64.25V64.26ZM88.7591 51C88.7591 49.79 89.2891 49.33 90.1391 49.33C90.9891 49.33 91.5091 49.79 91.5091 51V60.13C91.5091 61.34 90.9791 61.8 90.1391 61.8C89.2991 61.8 88.7591 61.34 88.7591 60.13V51ZM118.579 59.88C118.579 61.45 118.149 61.62 116.939 61.62V64.04H117.349C120.009 64.04 121.119 62.83 121.209 59.74L121.499 49.52H123.819V64.06H126.519V47.16H118.999L118.579 59.88ZM57.6991 67.45H53.7891V84.35H56.4391V78H57.6991C60.3591 78 61.6991 76.53 61.6991 73.82V71.62C61.6991 68.92 60.3991 67.44 57.6991 67.44V67.45ZM58.9991 74C58.9991 75.21 58.5391 75.59 57.6891 75.59H56.4491V69.86H57.6991C58.5491 69.86 59.0091 70.25 59.0091 71.45L58.9991 74ZM43.2891 84.35H45.9491V69.86H48.9491V84.35H51.6591V67.45H43.2891V84.35ZM106.459 73.8H105.199V67.45H102.549V84.35H106.459C109.119 84.35 110.459 82.88 110.459 80.17V78C110.459 75.3 109.159 73.82 106.459 73.82V73.8ZM107.769 80.36C107.769 81.57 107.309 81.96 106.459 81.96H105.199V76.21H106.459C107.309 76.21 107.769 76.6 107.769 77.8V80.36ZM73.3491 84.36H80.5891V81.94H75.9991V77H79.6491V74.57H75.9991V69.86H80.5891V67.45H73.3391L73.3491 84.36ZM95.4291 84.36H98.0891V69.86H100.869V67.45H92.6391V69.87H95.4191L95.4291 84.36ZM111.939 84.36H114.599V67.45H111.939V84.36ZM88.6291 67.45L85.1491 74.81V67.45H82.4891V84.35H85.1491V79.16L85.9991 77.61L88.5791 84.34H91.3091L87.5891 75L91.2791 67.47L88.6291 67.45ZM67.3191 67.26C64.7091 67.26 63.3191 68.8 63.3191 71.51V80.3C63.3191 83.01 64.7491 84.55 67.3191 84.55C69.8891 84.55 71.3191 83.01 71.3191 80.3V71.5C71.3191 68.79 69.8891 67.25 67.3191 67.25V67.26ZM68.6991 80.46C68.6991 81.66 68.1691 82.13 67.3291 82.13C66.4891 82.13 65.9491 81.67 65.9491 80.46V71.34C65.9491 70.13 66.4791 69.67 67.3291 69.67C68.1791 69.67 68.7091 70.13 68.7091 71.34L68.6991 80.46ZM96.0891 94.71L95.0891 98.43V87.73H92.7491V104.64H95.4791L97.6991 96.89L98.7891 92.74V104.65H101.189V87.73H98.2591L96.0891 94.71ZM85.5591 94.71L84.5591 98.43V87.73H82.2291V104.64H84.9991L87.2191 96.89L88.3091 92.74V104.65H90.6991V87.73H87.7291L85.5591 94.71ZM66.6491 87.54C64.0391 87.54 62.6491 89.09 62.6491 91.79V100.58C62.6491 103.29 63.9991 104.83 66.6491 104.83C69.2991 104.83 70.6491 103.28 70.6491 100.58V98.33H68.1091V100.75C68.1091 101.96 67.5791 102.39 66.7291 102.39C65.8791 102.39 65.3591 101.96 65.3591 100.75V91.62C65.3591 90.41 65.8891 89.95 66.7391 89.95C67.5891 89.95 68.1191 90.41 68.1191 91.62V93.43H70.6291V91.79C70.6291 89.09 69.2791 87.54 66.6291 87.54H66.6491ZM76.3491 87.54C73.7391 87.54 72.3491 89.09 72.3491 91.79V100.58C72.3491 103.29 73.6991 104.83 76.3491 104.83C78.9991 104.83 80.3491 103.28 80.3491 100.58V98.33H77.8191V100.75C77.8191 101.96 77.2891 102.39 76.4391 102.39C75.5891 102.39 75.0691 101.96 75.0691 100.75V91.62C75.0691 90.41 75.5991 89.95 76.4491 89.95C77.2991 89.95 77.8291 90.41 77.8291 91.62V93.43H80.3391V91.79C80.3391 89.09 78.9891 87.54 76.3391 87.54H76.3491ZM56.7891 87.54C54.1791 87.54 52.7891 89.09 52.7891 91.79V100.58C52.7891 103.29 54.2091 104.83 56.7891 104.83C59.3691 104.83 60.7891 103.28 60.7891 100.58V91.79C60.7891 89.09 59.3691 87.54 56.7891 87.54ZM58.1691 100.75C58.1691 101.96 57.6391 102.42 56.7891 102.42C55.9391 102.42 55.4191 101.96 55.4191 100.75V91.62C55.4191 90.41 55.9491 89.95 56.7991 89.95C57.6491 89.95 58.1791 90.41 58.1791 91.62L58.1691 100.75ZM47.1691 87.75H43.2891V104.66H45.9491V98.29H47.1991C49.8591 98.29 51.1991 96.81 51.1991 94.11V91.91C51.1991 89.21 49.8991 87.73 47.1991 87.73L47.1691 87.75ZM48.5091 94.27C48.5091 95.48 48.0491 95.87 47.1991 95.87H45.9491V90.15H47.1991C48.0491 90.15 48.5091 90.54 48.5091 91.74V94.27Z" fill="white"/>
</g>
<defs>
<clipPath id="clip0_1084_2183">
<rect width="234.33" height="178.26" fill="white"/>
</clipPath>
</defs>
</svg>
