<svg width="341" height="411" viewBox="0 0 341 411" fill="none" xmlns="http://www.w3.org/2000/svg">
<path d="M175.294 339.434H337V51L234.93 102.035" stroke="white" stroke-width="8" stroke-linecap="round"/>
<path d="M174.147 339.434H9V217.867L91.5734 174.86" stroke="white" stroke-width="8" stroke-linecap="round"/>
<path d="M237.224 100.888L177.014 129.878L175.294 130.706" fill="#18a763"/>
<path d="M237.224 100.888L177.014 129.878L175.294 130.706" stroke="#18a763" stroke-width="8" stroke-linecap="square"/>
<path d="M169.537 209.029L99.8029 178.951L97.8105 178.091" fill="#18a763"/>
<path d="M169.537 209.029L99.8029 178.951L97.8105 178.091" stroke="#18a763" stroke-width="8" stroke-linecap="square"/>
<path d="M177.573 330.259V334.259H169.573V330.259H177.573ZM173.573 6.84643L170.574 4.20035L173.409 0.98584L176.42 4.03658L173.573 6.84643ZM173.573 304.455L175.606 307.9L173.786 308.973L171.873 308.075L173.573 304.455ZM169.573 330.259V6.84643H177.573V330.259H169.573ZM176.42 4.03658C207.664 35.6921 245.36 88.8663 256.395 145.539C261.929 173.958 260.781 203.395 248.595 231.401C236.404 259.421 213.319 285.649 175.606 307.9L171.541 301.01C208.082 279.45 229.86 254.409 241.26 228.209C252.666 201.995 253.838 174.261 248.543 147.068C237.92 92.5156 201.362 40.6953 170.726 9.65627L176.42 4.03658ZM171.873 308.075C140.148 293.18 101.934 260.009 90.769 208.741C79.5712 157.321 95.8363 88.926 170.574 4.20035L176.573 9.49249C102.8 93.1248 88.1258 159.007 98.5858 207.038C109.079 255.221 145.119 286.676 175.273 300.834L171.873 308.075Z" fill="#18a763"/>
<path d="M269 395.686H291.604V408H298.015V395.686H304.361V390.278H298.015V362H290.613L269 391.646V395.686ZM276.204 390.278V390.147L289.423 372.686C290.679 371.057 291.736 368.841 291.736 368.841H291.869C291.869 368.841 291.604 371.317 291.604 373.467V390.278H276.204ZM313.174 408H319.982L341 366.431V362H309.803V367.603H330.689C333.069 367.603 333.994 367.473 333.994 367.473V367.603C333.994 367.603 332.738 369.167 331.35 371.839L313.174 408Z" fill="#18a763"/>
<path d="M5.59229 407H23.7423C31.7673 407 37.9923 403.55 37.9923 395.9C37.9923 392.075 35.8173 388.325 31.2423 387.125V387.05C34.4673 385.475 36.2673 382.175 36.2673 378.65C36.2673 372.2 31.0923 368.75 23.3673 368.75H5.59229V407ZM15.1173 384.5V374.975H21.1923C24.9423 374.975 26.6673 376.7 26.6673 379.475C26.6673 382.4 24.9423 384.5 21.3423 384.5H15.1173ZM15.1173 400.7V390.425H22.0923C26.2173 390.425 28.3923 392.525 28.3923 395.6C28.3923 398.525 26.3673 400.7 22.0923 400.7H15.1173ZM45.2737 407H54.9487L57.1237 377.225C57.4237 373.7 57.1987 368.9 57.1987 368.9H57.3487C57.3487 368.9 59.0737 374.15 60.2737 377.225L68.8987 397.85H77.2987L85.9237 377.225C87.1237 374.15 88.8487 368.975 88.8487 368.975H88.9987C88.9987 368.975 88.7737 373.7 89.0737 377.225L91.2487 407H100.924L96.5737 353.75H86.2987L75.7987 380.075C74.5987 383.225 73.1737 387.875 73.1737 387.875H73.0237C73.0237 387.875 71.5987 383.225 70.3987 380.075L59.8987 353.75H49.6237L45.2737 407ZM107.564 387.875C107.564 398.75 115.514 407.9 128.189 407.9C133.664 407.9 139.664 405.875 143.564 402.425L139.814 395.6C136.739 398.075 132.764 399.8 128.864 399.8C123.089 399.8 117.989 396.35 117.389 389.675H143.714C143.864 388.475 144.014 387.2 144.014 386C144.014 375.875 138.014 367.85 127.064 367.85C115.589 367.85 107.564 376.1 107.564 387.875ZM117.614 383.15C118.514 378.275 121.964 375.05 126.839 375.05C131.114 375.05 134.414 378.05 134.489 383.15H117.614ZM149.605 387.875C149.605 398.975 157.705 407.9 170.38 407.9C176.53 407.9 182.53 405.5 186.13 401.675L182.455 394.925C179.605 397.7 175.255 399.8 171.205 399.8C163.855 399.8 159.28 394.25 159.28 387.8C159.28 381.275 163.855 375.95 170.905 375.95C174.655 375.95 178.405 377.675 180.805 380.075L185.08 373.55C181.405 369.575 175.555 367.85 170.38 367.85C157.705 367.85 149.605 377 149.605 387.875ZM201.944 407H211.394V376.85H224.069V368.75H189.344V376.85H201.944V407ZM227.242 387.875C227.242 398.75 235.192 407.9 247.867 407.9C253.342 407.9 259.342 405.875 263.242 402.425L259.492 395.6C256.417 398.075 252.442 399.8 248.542 399.8C242.767 399.8 237.667 396.35 237.067 389.675H263.392C263.542 388.475 263.692 387.2 263.692 386C263.692 375.875 257.692 367.85 246.742 367.85C235.267 367.85 227.242 376.1 227.242 387.875ZM237.292 383.15C238.192 378.275 241.642 375.05 246.517 375.05C250.792 375.05 254.092 378.05 254.167 383.15H237.292Z" fill="white"/>
</svg>
