<svg width="336" height="55" viewBox="0 0 336 55" fill="none" xmlns="http://www.w3.org/2000/svg">
<path d="M263.408 41.936H286.012V54.25H292.423V41.936H298.769V36.528H292.423V8.25H285.021L263.408 37.896V41.936ZM270.612 36.528V36.397L283.831 18.936C285.087 17.307 286.144 15.091 286.144 15.091H286.277C286.277 15.091 286.012 17.567 286.012 19.717V36.528H270.612ZM307.582 54.25H314.39L335.408 12.681V8.25H304.211V13.853H325.097C327.477 13.853 328.402 13.723 328.402 13.723V13.853C328.402 13.853 327.146 15.417 325.758 18.089L307.582 54.25Z" fill="#18a763"/>
<path d="M0 53.25H18.15C26.175 53.25 32.4 49.8 32.4 42.15C32.4 38.325 30.225 34.575 25.65 33.375V33.3C28.875 31.725 30.675 28.425 30.675 24.9C30.675 18.45 25.5 15 17.775 15H0V53.25ZM9.52501 30.75V21.225H15.6C19.35 21.225 21.075 22.95 21.075 25.725C21.075 28.65 19.35 30.75 15.75 30.75H9.52501ZM9.52501 46.95V36.675H16.5C20.625 36.675 22.8 38.775 22.8 41.85C22.8 44.775 20.775 46.95 16.5 46.95H9.52501ZM39.6814 53.25H49.3564L51.5314 23.475C51.8314 19.95 51.6064 15.15 51.6064 15.15H51.7564C51.7564 15.15 53.4814 20.4 54.6814 23.475L63.3064 44.1H71.7064L80.3314 23.475C81.5314 20.4 83.2564 15.225 83.2564 15.225H83.4064C83.4064 15.225 83.1814 19.95 83.4814 23.475L85.6564 53.25H95.3318L90.9814 0H80.7064L70.2064 26.325C69.0064 29.475 67.5814 34.125 67.5814 34.125H67.4314C67.4314 34.125 66.0064 29.475 64.8064 26.325L54.3064 0H44.0314L39.6814 53.25ZM101.972 34.125C101.972 45 109.922 54.15 122.597 54.15C128.072 54.15 134.072 52.125 137.972 48.675L134.222 41.85C131.147 44.325 127.172 46.05 123.272 46.05C117.497 46.05 112.397 42.6 111.797 35.925H138.122C138.272 34.725 138.422 33.45 138.422 32.25C138.422 22.125 132.422 14.1 121.472 14.1C109.997 14.1 101.972 22.35 101.972 34.125ZM112.022 29.4C112.922 24.525 116.372 21.3 121.247 21.3C125.522 21.3 128.822 24.3 128.897 29.4H112.022ZM144.013 34.125C144.013 45.225 152.113 54.15 164.788 54.15C170.938 54.15 176.938 51.75 180.538 47.925L176.863 41.175C174.013 43.95 169.663 46.05 165.613 46.05C158.263 46.05 153.688 40.5 153.688 34.05C153.688 27.525 158.263 22.2 165.313 22.2C169.063 22.2 172.813 23.925 175.213 26.325L179.488 19.8C175.813 15.825 169.963 14.1 164.788 14.1C152.113 14.1 144.013 23.25 144.013 34.125ZM196.352 53.25H205.802V23.1H218.477V15H183.752V23.1H196.352V53.25ZM221.65 34.125C221.65 45 229.6 54.15 242.275 54.15C247.75 54.15 253.75 52.125 257.65 48.675L253.9 41.85C250.825 44.325 246.85 46.05 242.95 46.05C237.175 46.05 232.075 42.6 231.475 35.925H257.8C257.95 34.725 258.1 33.45 258.1 32.25C258.1 22.125 252.1 14.1 241.15 14.1C229.675 14.1 221.65 22.35 221.65 34.125ZM231.7 29.4C232.6 24.525 236.05 21.3 240.925 21.3C245.2 21.3 248.5 24.3 248.575 29.4H231.7Z" fill="#34404C"/>
</svg>
